<svg width="18" height="18" viewBox="0 0 18 18" fill="none" xmlns="http://www.w3.org/2000/svg">
<path d="M16.629 1.37285C16.5139 1.25785 16.3681 1.17855 16.2091 1.14449C16.05 1.11044 15.8845 1.12308 15.7325 1.1809L1.66892 6.50391H1.66611C1.50395 6.56628 1.365 6.67718 1.26824 6.82147C1.17147 6.96576 1.1216 7.13641 1.12545 7.3101C1.1293 7.48379 1.18667 7.65206 1.28973 7.79193C1.39278 7.93179 1.53651 8.03644 1.70126 8.09157L1.71568 8.09614L6.54263 10.1573C6.63678 10.1859 6.73677 10.1893 6.83264 10.1672C6.92851 10.145 7.01689 10.0981 7.08896 10.0311L14.836 2.8125C14.8591 2.78942 14.8865 2.77111 14.9166 2.75862C14.9468 2.74612 14.9791 2.73969 15.0118 2.73969C15.0444 2.73969 15.0767 2.74612 15.1069 2.75862C15.1371 2.77111 15.1645 2.78942 15.1876 2.8125C15.2106 2.83559 15.2289 2.86299 15.2414 2.89315C15.2539 2.92331 15.2604 2.95564 15.2604 2.98828C15.2604 3.02093 15.2539 3.05326 15.2414 3.08342C15.2289 3.11358 15.2106 3.14098 15.1876 3.16407L7.96857 10.9076C7.90159 10.9797 7.85468 11.068 7.83253 11.1639C7.81039 11.2598 7.81377 11.3598 7.84236 11.4539L9.90427 16.2837C9.90638 16.2907 9.90849 16.297 9.91095 16.3037C10.0234 16.6296 10.3082 16.8595 10.6524 16.875H10.6876C10.8613 16.876 11.0313 16.8247 11.1755 16.7278C11.3197 16.6308 11.4315 16.4928 11.4961 16.3315L16.8184 2.2718C16.8771 2.11967 16.8904 1.95381 16.8568 1.79428C16.8231 1.63474 16.744 1.48837 16.629 1.37285Z" fill="black"/>
</svg>
